<?xml version="1.0" encoding="UTF-8" standalone="no"?>
<!DOCTYPE svg PUBLIC "-//W3C//DTD SVG 1.1//EN"
 "http://www.w3.org/Graphics/SVG/1.1/DTD/svg11.dtd">
<!-- Generated by graphviz version 2.40.1 (20161225.0304)
 -->
<!-- Title: dependencies Pages: 1 -->
<svg width="836pt" height="284pt"
 viewBox="0.00 0.00 836.00 284.00" xmlns="http://www.w3.org/2000/svg" xmlns:xlink="http://www.w3.org/1999/xlink">
<g id="graph0" class="graph" transform="scale(1 1) rotate(0) translate(4 280)">
<title>dependencies</title>
<polygon fill="#ffffff" stroke="transparent" points="-4,4 -4,-280 832,-280 832,4 -4,4"/>
<text text-anchor="start" x="393.0091" y="-42.4" font-family="sans-serif" font-weight="bold" font-size="14.00" fill="#000000">Legend</text>
<polygon fill="#ffffb3" stroke="transparent" points="180,-10 180,-30 200,-30 200,-10 180,-10"/>
<text text-anchor="start" x="203.629" y="-15.4" font-family="sans-serif" font-size="14.00" fill="#000000"> &#160;Declarations</text>
<polygon fill="#8dd3c7" stroke="transparent" points="293,-10 293,-30 313,-30 313,-10 293,-10"/>
<text text-anchor="start" x="316.7251" y="-15.4" font-family="sans-serif" font-size="14.00" fill="#000000"> &#160;Module</text>
<polygon fill="#80b1d3" stroke="transparent" points="379,-10 379,-30 399,-30 399,-10 379,-10"/>
<text text-anchor="start" x="402.7812" y="-15.4" font-family="sans-serif" font-size="14.00" fill="#000000"> &#160;Bootstrap</text>
<polygon fill="#fdb462" stroke="transparent" points="476,-10 476,-30 496,-30 496,-10 476,-10"/>
<text text-anchor="start" x="499.6732" y="-15.4" font-family="sans-serif" font-size="14.00" fill="#000000"> &#160;Providers</text>
<polygon fill="#fb8072" stroke="transparent" points="572,-10 572,-30 592,-30 592,-10 572,-10"/>
<text text-anchor="start" x="595.7258" y="-15.4" font-family="sans-serif" font-size="14.00" fill="#000000"> &#160;Exports</text>
<g id="clust1" class="cluster">
<title>cluster_AngularGooglePlaceModule</title>
<polygon fill="none" stroke="#000000" stroke-dasharray="1,5" points="8,-70 8,-268 820,-268 820,-70 8,-70"/>
</g>
<g id="clust2" class="cluster">
<title>cluster_AngularGooglePlaceModule_declarations</title>
<polygon fill="none" stroke="#000000" points="610,-78 610,-130 812,-130 812,-78 610,-78"/>
</g>
<g id="clust5" class="cluster">
<title>cluster_AngularGooglePlaceModule_exports</title>
<polygon fill="none" stroke="#000000" points="371,-208 371,-260 575,-260 575,-208 371,-208"/>
</g>
<g id="clust7" class="cluster">
<title>cluster_AngularGooglePlaceModule_providers</title>
<polygon fill="none" stroke="#000000" points="16,-78 16,-130 602,-130 602,-78 16,-78"/>
</g>
<!-- AngularGooglePlaceDirective -->
<g id="node1" class="node">
<title>AngularGooglePlaceDirective</title>
<polygon fill="#ffffb3" stroke="#000000" points="803.9846,-122 618.0154,-122 618.0154,-86 803.9846,-86 803.9846,-122"/>
<text text-anchor="middle" x="711" y="-99.8" font-family="Times,serif" font-size="14.00" fill="#000000">AngularGooglePlaceDirective</text>
</g>
<!-- AngularGooglePlaceModule -->
<g id="node2" class="node">
<title>AngularGooglePlaceModule</title>
<polygon fill="#8dd3c7" stroke="#000000" points="561.451,-187 558.451,-191 537.451,-191 534.451,-187 384.549,-187 384.549,-151 561.451,-151 561.451,-187"/>
<text text-anchor="middle" x="473" y="-164.8" font-family="Times,serif" font-size="14.00" fill="#000000">AngularGooglePlaceModule</text>
</g>
<!-- AngularGooglePlaceDirective&#45;&gt;AngularGooglePlaceModule -->
<g id="edge1" class="edge">
<title>AngularGooglePlaceDirective&#45;&gt;AngularGooglePlaceModule</title>
<path fill="none" stroke="#000000" d="M711,-122.1061C711,-141.3391 711,-169 711,-169 711,-169 571.6224,-169 571.6224,-169"/>
<polygon fill="#000000" stroke="#000000" points="571.6225,-165.5001 561.6224,-169 571.6224,-172.5001 571.6225,-165.5001"/>
</g>
<!-- AngularGooglePlaceDirective  -->
<g id="node3" class="node">
<title>AngularGooglePlaceDirective </title>
<polygon fill="#fb8072" stroke="#000000" points="567.484,-252 378.516,-252 378.516,-216 567.484,-216 567.484,-252"/>
<text text-anchor="middle" x="473" y="-229.8" font-family="Times,serif" font-size="14.00" fill="#000000">AngularGooglePlaceDirective </text>
</g>
<!-- AngularGooglePlaceModule&#45;&gt;AngularGooglePlaceDirective  -->
<g id="edge2" class="edge">
<title>AngularGooglePlaceModule&#45;&gt;AngularGooglePlaceDirective </title>
<path fill="none" stroke="#000000" stroke-dasharray="5,2" d="M473,-187.1061C473,-187.1061 473,-205.991 473,-205.991"/>
<polygon fill="#000000" stroke="#000000" points="469.5001,-205.9909 473,-215.991 476.5001,-205.991 469.5001,-205.9909"/>
</g>
<!-- AngularGooglePlaceService -->
<g id="node4" class="node">
<title>AngularGooglePlaceService</title>
<ellipse fill="#fdb462" stroke="#000000" cx="473" cy="-104" rx="120.9462" ry="18"/>
<text text-anchor="middle" x="473" y="-99.8" font-family="Times,serif" font-size="14.00" fill="#000000">AngularGooglePlaceService</text>
</g>
<!-- AngularGooglePlaceService&#45;&gt;AngularGooglePlaceModule -->
<g id="edge3" class="edge">
<title>AngularGooglePlaceService&#45;&gt;AngularGooglePlaceModule</title>
<path fill="none" stroke="#000000" d="M473,-122.1061C473,-122.1061 473,-140.991 473,-140.991"/>
<polygon fill="#000000" stroke="#000000" points="469.5001,-140.9909 473,-150.991 476.5001,-140.991 469.5001,-140.9909"/>
</g>
<!-- AngularGooglePlaceConstantService -->
<g id="node5" class="node">
<title>AngularGooglePlaceConstantService</title>
<ellipse fill="#fdb462" stroke="#000000" cx="179" cy="-104" rx="155.117" ry="18"/>
<text text-anchor="middle" x="179" y="-99.8" font-family="Times,serif" font-size="14.00" fill="#000000">AngularGooglePlaceConstantService</text>
</g>
<!-- AngularGooglePlaceConstantService&#45;&gt;AngularGooglePlaceModule -->
<g id="edge4" class="edge">
<title>AngularGooglePlaceConstantService&#45;&gt;AngularGooglePlaceModule</title>
<path fill="none" stroke="#000000" d="M179,-122.1061C179,-141.3391 179,-169 179,-169 179,-169 374.3916,-169 374.3916,-169"/>
<polygon fill="#000000" stroke="#000000" points="374.3916,-172.5001 384.3916,-169 374.3916,-165.5001 374.3916,-172.5001"/>
</g>
</g>
</svg>
